<svg width="227" height="227" viewBox="0 0 227 227" fill="none" xmlns="http://www.w3.org/2000/svg">
<g clip-path="url(#clip0_94_17)">
<path d="M158.645 0.113477C158.162 -0.425648 140.783 0.32629 125.659 16.7412C110.535 33.142 112.862 51.9546 113.202 52.437C113.543 52.9194 134.767 53.6713 148.316 34.5891C161.865 15.5069 159.127 0.66679 158.645 0.113477M205.662 166.575C204.981 165.213 172.676 149.068 175.684 118.026C178.692 86.9835 199.448 78.4569 199.774 77.5347C200.101 76.6125 191.304 66.3265 181.983 61.1197C175.138 57.4523 167.564 55.3493 159.808 54.9624C158.276 54.9198 152.955 53.6145 142.017 56.6081C134.81 58.5802 118.565 64.9645 114.096 65.2199C109.613 65.4753 96.2764 57.814 81.9328 55.7852C72.7535 54.0118 63.0209 57.6438 56.0548 60.4387C49.1029 63.2195 35.8802 71.1361 26.6299 92.1762C17.3797 113.202 22.2176 146.514 25.6794 156.871C29.1411 167.228 34.5466 184.168 43.7401 196.539C51.9121 210.5 62.7513 220.19 67.2771 223.481C71.8029 226.773 84.5717 228.958 93.4247 224.432C100.547 220.062 113.401 217.551 118.48 217.736C123.545 217.92 133.533 219.92 143.762 225.383C151.863 228.178 159.524 227.014 167.2 223.893C174.875 220.757 185.984 208.868 198.951 184.764C203.87 173.556 206.107 167.493 205.662 166.575" fill="black"/>
<path d="M158.645 0.113477C158.162 -0.425648 140.783 0.32629 125.659 16.7412C110.535 33.142 112.862 51.9546 113.202 52.437C113.543 52.9194 134.767 53.6713 148.316 34.5891C161.865 15.5069 159.127 0.66679 158.645 0.113477M205.662 166.575C204.981 165.213 172.676 149.068 175.684 118.026C178.692 86.9835 199.448 78.4569 199.774 77.5347C200.101 76.6125 191.304 66.3265 181.983 61.1197C175.138 57.4523 167.564 55.3493 159.808 54.9624C158.276 54.9198 152.955 53.6145 142.017 56.6081C134.81 58.5802 118.565 64.9645 114.096 65.2199C109.613 65.4753 96.2764 57.814 81.9328 55.7852C72.7535 54.0118 63.0209 57.6438 56.0548 60.4387C49.1029 63.2195 35.8802 71.1361 26.6299 92.1762C17.3797 113.202 22.2176 146.514 25.6794 156.871C29.1411 167.228 34.5466 184.168 43.7401 196.539C51.9121 210.5 62.7513 220.19 67.2771 223.481C71.8029 226.773 84.5717 228.958 93.4247 224.432C100.547 220.062 113.401 217.551 118.48 217.736C123.545 217.92 133.533 219.92 143.762 225.383C151.863 228.178 159.524 227.014 167.2 223.893C174.875 220.757 185.984 208.868 198.951 184.764C203.87 173.556 206.107 167.493 205.662 166.575" fill="black"/>
</g>
<defs>
<clipPath id="clip0_94_17">
<rect width="227" height="227" fill="white"/>
</clipPath>
</defs>
</svg>
