<svg width="276" height="276" viewBox="0 0 276 276" fill="none" xmlns="http://www.w3.org/2000/svg">
<g clip-path="url(#clip0_94_12)">
<path d="M25.875 0C19.0125 0 12.4311 2.72611 7.57861 7.57861C2.72611 12.4311 0 19.0125 0 25.875L0 146.625C0 153.487 2.72611 160.069 7.57861 164.921C12.4311 169.774 19.0125 172.5 25.875 172.5H103.5V189.75H17.25C12.675 189.75 8.28741 191.567 5.05241 194.802C1.81741 198.037 0 202.425 0 207L0 258.75C0 263.325 1.81741 267.713 5.05241 270.948C8.28741 274.183 12.675 276 17.25 276H258.75C263.325 276 267.713 274.183 270.948 270.948C274.183 267.713 276 263.325 276 258.75V207C276 202.425 274.183 198.037 270.948 194.802C267.713 191.567 263.325 189.75 258.75 189.75H172.5V172.5H250.125C256.987 172.5 263.569 169.774 268.421 164.921C273.274 160.069 276 153.487 276 146.625V25.875C276 19.0125 273.274 12.4311 268.421 7.57861C263.569 2.72611 256.987 0 250.125 0L25.875 0ZM25.875 17.25H250.125C252.412 17.25 254.606 18.1587 256.224 19.7762C257.841 21.3937 258.75 23.5875 258.75 25.875V146.625C258.75 148.912 257.841 151.106 256.224 152.724C254.606 154.341 252.412 155.25 250.125 155.25H25.875C23.5875 155.25 21.3937 154.341 19.7762 152.724C18.1587 151.106 17.25 148.912 17.25 146.625V25.875C17.25 23.5875 18.1587 21.3937 19.7762 19.7762C21.3937 18.1587 23.5875 17.25 25.875 17.25ZM207 215.625C207 213.338 207.909 211.144 209.526 209.526C211.144 207.909 213.338 207 215.625 207C217.912 207 220.106 207.909 221.724 209.526C223.341 211.144 224.25 213.338 224.25 215.625C224.25 217.912 223.341 220.106 221.724 221.724C220.106 223.341 217.912 224.25 215.625 224.25C213.338 224.25 211.144 223.341 209.526 221.724C207.909 220.106 207 217.912 207 215.625ZM241.5 215.625C241.5 213.338 242.409 211.144 244.026 209.526C245.644 207.909 247.838 207 250.125 207C252.412 207 254.606 207.909 256.224 209.526C257.841 211.144 258.75 213.338 258.75 215.625C258.75 217.912 257.841 220.106 256.224 221.724C254.606 223.341 252.412 224.25 250.125 224.25C247.838 224.25 245.644 223.341 244.026 221.724C242.409 220.106 241.5 217.912 241.5 215.625ZM25.875 207H112.125C114.412 207 116.606 207.909 118.224 209.526C119.841 211.144 120.75 213.338 120.75 215.625C120.75 217.912 119.841 220.106 118.224 221.724C116.606 223.341 114.412 224.25 112.125 224.25H25.875C23.5875 224.25 21.3937 223.341 19.7762 221.724C18.1587 220.106 17.25 217.912 17.25 215.625C17.25 213.338 18.1587 211.144 19.7762 209.526C21.3937 207.909 23.5875 207 25.875 207ZM17.25 245.812C17.25 244.669 17.7044 243.572 18.5131 242.763C19.3219 241.954 20.4188 241.5 21.5625 241.5H116.438C117.581 241.5 118.678 241.954 119.487 242.763C120.296 243.572 120.75 244.669 120.75 245.812C120.75 246.956 120.296 248.053 119.487 248.862C118.678 249.671 117.581 250.125 116.438 250.125H21.5625C20.4188 250.125 19.3219 249.671 18.5131 248.862C17.7044 248.053 17.25 246.956 17.25 245.812Z" fill="black"/>
</g>
<defs>
<clipPath id="clip0_94_12">
<rect width="276" height="276" fill="white"/>
</clipPath>
</defs>
</svg>
