<svg width="418" height="418" viewBox="0 0 418 418" fill="none" xmlns="http://www.w3.org/2000/svg">
<path d="M24.2064 96.2461V321.754H125.947V96.2461H24.2064ZM98.132 302.928C96.3558 302.928 94.6196 302.401 93.1427 301.414C91.6659 300.427 90.5148 299.025 89.8351 297.384C89.1554 295.743 88.9776 293.937 89.3241 292.195C89.6706 290.453 90.5259 288.853 91.7819 287.597C93.0378 286.341 94.638 285.486 96.38 285.139C98.122 284.793 99.9277 284.97 101.569 285.65C103.21 286.33 104.612 287.481 105.599 288.958C106.586 290.435 107.112 292.171 107.112 293.947C107.112 296.329 106.166 298.613 104.482 300.297C102.798 301.981 100.514 302.928 98.132 302.928ZM112.827 148.496H37.1954V135.434H112.819V148.496H112.827ZM112.827 122.371H37.1954V109.309H112.819V122.371H112.827ZM237.737 276.272H297.417V308.691H331.494V321.754H203.677V308.691H237.754V276.272H237.737ZM141.402 96.2461V263.209H393.794V96.2461H141.393H141.402ZM380.731 250.147H154.456V109.309H380.731V250.147Z" fill="black"/>
</svg>
