<svg width="330" height="330" viewBox="0 0 330 330" fill="none" xmlns="http://www.w3.org/2000/svg">
<path d="M301.641 32.3813H206.869L202.146 37.125V225.06L205.549 249.707H201.816V252.223H198.65V249.068H192.359V251.584H189.142V247.799H184.14V250.955H172.734L151.903 247.17V237.683H160.741L163.855 222.523H191.977C192.907 222.523 193.799 222.154 194.457 221.496C195.114 220.839 195.484 219.947 195.484 219.017V80.7263C195.485 80.2664 195.395 79.8108 195.219 79.386C195.043 78.9611 194.785 78.5754 194.459 78.2511C194.132 77.9269 193.745 77.6707 193.319 77.4972C192.893 77.3237 192.437 77.2365 191.977 77.2406H16.3969C15.4741 77.246 14.5907 77.615 13.9381 78.2675C13.2856 78.92 12.9167 79.8035 12.9112 80.7263V219.038C12.9112 220.966 14.4787 222.544 16.4175 222.544H47.5097L49.5722 237.703H64.0922L29.0297 272.766L21.7594 288.234C21.7594 288.234 52.0781 299.609 90.6262 299.609C129.174 299.609 190.451 290.771 198.66 290.771H248.572V278.128L247.16 267.125H265.145C263.082 268.218 261.845 269.641 261.845 271.208V281.294C261.845 284.8 268.063 287.616 275.767 287.616C283.429 287.616 289.688 284.831 289.688 281.304V271.198C289.688 267.713 283.449 264.908 275.767 264.908C273.838 264.908 272.023 265.114 270.363 265.423V263.67H246.747L246.18 259.205H301.692L301.641 32.3813ZM25.5441 208.003V89.8631H180.953V208.003H25.5441Z" fill="black"/>
</svg>
