<svg width="184" height="184" viewBox="0 0 184 184" fill="none" xmlns="http://www.w3.org/2000/svg">
<path d="M120.965 62.928C117.338 62.6443 113.451 63.5107 107.487 65.7877C107.985 65.596 101.798 68.011 100.058 68.6243C96.209 69.966 93.0427 70.702 89.493 70.702C85.9817 70.702 82.7463 69.9967 79.028 68.747C77.726 68.3033 76.4351 67.8278 75.1563 67.321L71.714 65.964C66.746 64.0167 63.9553 63.2807 61.6323 63.342C52.7927 63.4493 44.436 68.5553 39.5753 77.004C29.67 94.2003 35.1593 125.296 49.6417 146.242C57.3467 157.312 61.571 161.268 63.2653 161.215C64.9673 161.138 66.2247 160.778 69.276 159.49L70.5487 158.945C78.2613 155.656 83.6587 154.207 91.793 154.207C99.6207 154.207 104.849 155.633 112.255 158.823L113.543 159.375C116.587 160.678 117.683 160.969 119.615 160.923C122.352 160.885 125.733 157.726 133.239 146.709C135.294 143.712 137.111 140.553 138.682 137.356C137.65 136.507 136.65 135.619 135.685 134.696C125.795 125.281 119.684 112.585 119.516 96.899C119.356 85.2925 123.173 73.9808 130.333 64.8447C127.329 63.7325 124.172 63.0861 120.972 62.928M122.161 47.6407C127.589 48.0087 143.137 49.6647 153.257 64.4767C152.429 64.9367 134.673 75.2407 134.857 96.7687C135.133 122.529 157.397 131.085 157.673 131.177C157.489 131.821 154.085 143.413 145.897 155.373C138.813 165.769 131.453 176.073 119.861 176.257C108.453 176.533 104.773 169.541 91.8007 169.541C78.7367 169.541 74.6887 176.073 63.9247 176.533C52.7007 176.901 44.2367 165.309 37.0607 155.005C22.4327 133.845 11.3007 95.3887 26.2967 69.3527C33.7487 56.3807 46.9967 48.1927 61.4407 48.0087C72.3887 47.7327 82.7847 55.3687 89.5007 55.3687C96.1247 55.3687 107.993 46.5367 122.161 47.6407ZM113.421 33.6567C107.441 40.8327 97.6887 46.4447 88.2127 45.7087C86.9247 35.9567 91.7087 25.7447 97.2287 19.3967C103.393 12.2207 113.697 6.88466 122.253 6.51666C123.357 16.4527 119.401 26.4807 113.421 33.6567Z" fill="black"/>
</svg>
