<svg width="68" height="59" viewBox="0 0 68 59" fill="none" xmlns="http://www.w3.org/2000/svg">
<path d="M53.8333 9.83335H48.1667V7.37502C48.1667 6.72303 47.8682 6.09774 47.3368 5.63672C46.8055 5.17569 46.0848 4.91669 45.3333 4.91669C44.5819 4.91669 43.8612 5.17569 43.3299 5.63672C42.7985 6.09774 42.5 6.72303 42.5 7.37502V9.83335H25.5V7.37502C25.5 6.72303 25.2015 6.09774 24.6701 5.63672C24.1388 5.17569 23.4181 4.91669 22.6667 4.91669C21.9152 4.91669 21.1946 5.17569 20.6632 5.63672C20.1318 6.09774 19.8333 6.72303 19.8333 7.37502V9.83335H14.1667C11.9123 9.83335 9.75032 10.6104 8.15626 11.9934C6.5622 13.3765 5.66667 15.2524 5.66667 17.2084V46.7084C5.66667 48.6643 6.5622 50.5402 8.15626 51.9233C9.75032 53.3064 11.9123 54.0834 14.1667 54.0834H53.8333C56.0877 54.0834 58.2497 53.3064 59.8437 51.9233C61.4378 50.5402 62.3333 48.6643 62.3333 46.7084V17.2084C62.3333 15.2524 61.4378 13.3765 59.8437 11.9934C58.2497 10.6104 56.0877 9.83335 53.8333 9.83335ZM56.6667 46.7084C56.6667 47.3603 56.3682 47.9856 55.8368 48.4467C55.3055 48.9077 54.5848 49.1667 53.8333 49.1667H14.1667C13.4152 49.1667 12.6946 48.9077 12.1632 48.4467C11.6318 47.9856 11.3333 47.3603 11.3333 46.7084V29.5H56.6667V46.7084ZM56.6667 24.5834H11.3333V17.2084C11.3333 16.5564 11.6318 15.9311 12.1632 15.4701C12.6946 15.009 13.4152 14.75 14.1667 14.75H19.8333V17.2084C19.8333 17.8603 20.1318 18.4856 20.6632 18.9467C21.1946 19.4077 21.9152 19.6667 22.6667 19.6667C23.4181 19.6667 24.1388 19.4077 24.6701 18.9467C25.2015 18.4856 25.5 17.8603 25.5 17.2084V14.75H42.5V17.2084C42.5 17.8603 42.7985 18.4856 43.3299 18.9467C43.8612 19.4077 44.5819 19.6667 45.3333 19.6667C46.0848 19.6667 46.8055 19.4077 47.3368 18.9467C47.8682 18.4856 48.1667 17.8603 48.1667 17.2084V14.75H53.8333C54.5848 14.75 55.3055 15.009 55.8368 15.4701C56.3682 15.9311 56.6667 16.5564 56.6667 17.2084V24.5834Z" fill="black"/>
</svg>
